<?xml version="1.0" encoding="UTF-8" standalone="no"?>
<!DOCTYPE svg PUBLIC "-//W3C//DTD SVG 1.1//EN"
 "http://www.w3.org/Graphics/SVG/1.1/DTD/svg11.dtd">
<!-- Generated by graphviz version 2.38.0 (20140413.2041)
 -->
<!-- Title: controllers_diagram Pages: 1 -->
<svg width="573pt" height="568pt"
 viewBox="0.00 0.00 572.72 568.00" xmlns="http://www.w3.org/2000/svg" xmlns:xlink="http://www.w3.org/1999/xlink">
<g id="graph0" class="graph" transform="scale(1 1) rotate(0) translate(208.033 343.5)">
<title>controllers_diagram</title>
<polygon fill="none" stroke="none" points="-208.033,224.5 -208.033,-343.5 364.688,-343.5 364.688,224.5 -208.033,224.5"/>
<!-- _diagram_info -->
<g id="node1" class="node"><title>_diagram_info</title>
<text text-anchor="start" x="161.312" y="-212.1" font-family="Times,serif" font-size="13.00">Controllers diagram</text>
<text text-anchor="start" x="161.312" y="-199.1" font-family="Times,serif" font-size="13.00">Date: Aug 22 2016 &#45; 21:16</text>
<text text-anchor="start" x="161.312" y="-186.1" font-family="Times,serif" font-size="13.00">Migration version: 20160819215253</text>
<text text-anchor="start" x="161.312" y="-173.1" font-family="Times,serif" font-size="13.00">Generated by RailRoady 1.5.1</text>
<text text-anchor="start" x="161.312" y="-160.1" font-family="Times,serif" font-size="13.00">http://railroady.prestonlee.com</text>
</g>
<!-- AddressesController -->
<g id="node2" class="node"><title>AddressesController</title>
<path fill="none" stroke="black" d="M-55.5449,118C-55.5449,118 51.5449,118 51.5449,118 57.5449,118 63.5449,112 63.5449,106 63.5449,106 63.5449,-86 63.5449,-86 63.5449,-92 57.5449,-98 51.5449,-98 51.5449,-98 -55.5449,-98 -55.5449,-98 -61.5449,-98 -67.5449,-92 -67.5449,-86 -67.5449,-86 -67.5449,106 -67.5449,106 -67.5449,112 -61.5449,118 -55.5449,118"/>
<text text-anchor="middle" x="-2" y="-82.8" font-family="Times,serif" font-size="14.00">AddressesController</text>
<polyline fill="none" stroke="black" points="-67.5449,-76 63.5449,-76 "/>
<text text-anchor="start" x="-59.5449" y="-60.8" font-family="Times,serif" font-size="14.00">index</text>
<text text-anchor="start" x="-59.5449" y="-46.8" font-family="Times,serif" font-size="14.00">destroy</text>
<text text-anchor="start" x="-59.5449" y="-32.8" font-family="Times,serif" font-size="14.00">edit</text>
<text text-anchor="start" x="-59.5449" y="-18.8" font-family="Times,serif" font-size="14.00">create</text>
<text text-anchor="start" x="-59.5449" y="-4.8" font-family="Times,serif" font-size="14.00">new</text>
<text text-anchor="start" x="-59.5449" y="9.2" font-family="Times,serif" font-size="14.00">show</text>
<text text-anchor="start" x="-59.5449" y="23.2" font-family="Times,serif" font-size="14.00">update</text>
<polyline fill="none" stroke="black" points="-67.5449,30 63.5449,30 "/>
<polyline fill="none" stroke="black" points="-67.5449,54 63.5449,54 "/>
<text text-anchor="start" x="-59.5449" y="69.2" font-family="Times,serif" font-size="14.00">_layout</text>
<text text-anchor="start" x="-59.5449" y="83.2" font-family="Times,serif" font-size="14.00">address_params</text>
<text text-anchor="start" x="-59.5449" y="97.2" font-family="Times,serif" font-size="14.00">find_address</text>
<text text-anchor="start" x="-59.5449" y="111.2" font-family="Times,serif" font-size="14.00">find_person</text>
</g>
<!-- ApplicationController -->
<g id="node3" class="node"><title>ApplicationController</title>
<path fill="none" stroke="black" d="M114.179,220C114.179,220 229.821,220 229.821,220 235.821,220 241.821,214 241.821,208 241.821,208 241.821,140 241.821,140 241.821,134 235.821,128 229.821,128 229.821,128 114.179,128 114.179,128 108.179,128 102.179,134 102.179,140 102.179,140 102.179,208 102.179,208 102.179,214 108.179,220 114.179,220"/>
<text text-anchor="middle" x="172" y="143.2" font-family="Times,serif" font-size="14.00">ApplicationController</text>
<polyline fill="none" stroke="black" points="102.179,150 241.821,150 "/>
<polyline fill="none" stroke="black" points="102.179,174 241.821,174 "/>
<polyline fill="none" stroke="black" points="102.179,198 241.821,198 "/>
<text text-anchor="start" x="110.179" y="213.2" font-family="Times,serif" font-size="14.00">_layout</text>
</g>
<!-- FavoritesController -->
<g id="node4" class="node"><title>FavoritesController</title>
<path fill="none" stroke="black" d="M114.176,101C114.176,101 215.824,101 215.824,101 221.824,101 227.824,95 227.824,89 227.824,89 227.824,-103 227.824,-103 227.824,-109 221.824,-115 215.824,-115 215.824,-115 114.176,-115 114.176,-115 108.176,-115 102.176,-109 102.176,-103 102.176,-103 102.176,89 102.176,89 102.176,95 108.176,101 114.176,101"/>
<text text-anchor="middle" x="165" y="-99.8" font-family="Times,serif" font-size="14.00">FavoritesController</text>
<polyline fill="none" stroke="black" points="102.176,-93 227.824,-93 "/>
<text text-anchor="start" x="110.176" y="-77.8" font-family="Times,serif" font-size="14.00">index</text>
<text text-anchor="start" x="110.176" y="-63.8" font-family="Times,serif" font-size="14.00">destroy</text>
<text text-anchor="start" x="110.176" y="-49.8" font-family="Times,serif" font-size="14.00">edit</text>
<text text-anchor="start" x="110.176" y="-35.8" font-family="Times,serif" font-size="14.00">create</text>
<text text-anchor="start" x="110.176" y="-21.8" font-family="Times,serif" font-size="14.00">new</text>
<text text-anchor="start" x="110.176" y="-7.8" font-family="Times,serif" font-size="14.00">show</text>
<text text-anchor="start" x="110.176" y="6.2" font-family="Times,serif" font-size="14.00">update</text>
<polyline fill="none" stroke="black" points="102.176,13 227.824,13 "/>
<polyline fill="none" stroke="black" points="102.176,37 227.824,37 "/>
<text text-anchor="start" x="110.176" y="52.2" font-family="Times,serif" font-size="14.00">_layout</text>
<text text-anchor="start" x="110.176" y="66.2" font-family="Times,serif" font-size="14.00">favorite</text>
<text text-anchor="start" x="110.176" y="80.2" font-family="Times,serif" font-size="14.00">favorite_params</text>
<text text-anchor="start" x="110.176" y="94.2" font-family="Times,serif" font-size="14.00">person</text>
</g>
<!-- PeopleController -->
<g id="node5" class="node"><title>PeopleController</title>
<path fill="none" stroke="black" d="M-38.8242,-137C-38.8242,-137 48.8242,-137 48.8242,-137 54.8242,-137 60.8242,-143 60.8242,-149 60.8242,-149 60.8242,-327 60.8242,-327 60.8242,-333 54.8242,-339 48.8242,-339 48.8242,-339 -38.8242,-339 -38.8242,-339 -44.8242,-339 -50.8242,-333 -50.8242,-327 -50.8242,-327 -50.8242,-149 -50.8242,-149 -50.8242,-143 -44.8242,-137 -38.8242,-137"/>
<text text-anchor="middle" x="5" y="-323.8" font-family="Times,serif" font-size="14.00">PeopleController</text>
<polyline fill="none" stroke="black" points="-50.8242,-317 60.8242,-317 "/>
<text text-anchor="start" x="-42.8242" y="-301.8" font-family="Times,serif" font-size="14.00">index</text>
<text text-anchor="start" x="-42.8242" y="-287.8" font-family="Times,serif" font-size="14.00">destroy</text>
<text text-anchor="start" x="-42.8242" y="-273.8" font-family="Times,serif" font-size="14.00">edit</text>
<text text-anchor="start" x="-42.8242" y="-259.8" font-family="Times,serif" font-size="14.00">create</text>
<text text-anchor="start" x="-42.8242" y="-245.8" font-family="Times,serif" font-size="14.00">new</text>
<text text-anchor="start" x="-42.8242" y="-231.8" font-family="Times,serif" font-size="14.00">show</text>
<text text-anchor="start" x="-42.8242" y="-217.8" font-family="Times,serif" font-size="14.00">update</text>
<polyline fill="none" stroke="black" points="-50.8242,-211 60.8242,-211 "/>
<polyline fill="none" stroke="black" points="-50.8242,-187 60.8242,-187 "/>
<text text-anchor="start" x="-42.8242" y="-171.8" font-family="Times,serif" font-size="14.00">_layout</text>
<text text-anchor="start" x="-42.8242" y="-157.8" font-family="Times,serif" font-size="14.00">person</text>
<text text-anchor="start" x="-42.8242" y="-143.8" font-family="Times,serif" font-size="14.00">person_params</text>
</g>
<!-- WelcomeController -->
<g id="node6" class="node"><title>WelcomeController</title>
<path fill="none" stroke="black" d="M-192.033,-205C-192.033,-205 -89.9673,-205 -89.9673,-205 -83.9673,-205 -77.9673,-211 -77.9673,-217 -77.9673,-217 -77.9673,-283 -77.9673,-283 -77.9673,-289 -83.9673,-295 -89.9673,-295 -89.9673,-295 -192.033,-295 -192.033,-295 -198.033,-295 -204.033,-289 -204.033,-283 -204.033,-283 -204.033,-217 -204.033,-217 -204.033,-211 -198.033,-205 -192.033,-205"/>
<text text-anchor="middle" x="-141" y="-279.8" font-family="Times,serif" font-size="14.00">WelcomeController</text>
<polyline fill="none" stroke="black" points="-204.033,-273 -77.9673,-273 "/>
<text text-anchor="start" x="-196.033" y="-257.8" font-family="Times,serif" font-size="14.00">home</text>
<polyline fill="none" stroke="black" points="-204.033,-251 -77.9673,-251 "/>
<polyline fill="none" stroke="black" points="-204.033,-227 -77.9673,-227 "/>
<text text-anchor="start" x="-196.033" y="-211.8" font-family="Times,serif" font-size="14.00">_layout</text>
</g>
</g>
</svg>
