<?xml version="1.0" encoding="UTF-8" standalone="no"?>
<!DOCTYPE svg PUBLIC "-//W3C//DTD SVG 1.1//EN"
 "http://www.w3.org/Graphics/SVG/1.1/DTD/svg11.dtd">
<!-- Generated by graphviz version 2.38.0 (20140413.2041)
 -->
<!-- Title: models_diagram Pages: 1 -->
<svg width="475pt" height="153pt"
 viewBox="0.00 0.00 475.08 153.00" xmlns="http://www.w3.org/2000/svg" xmlns:xlink="http://www.w3.org/1999/xlink">
<g id="graph0" class="graph" transform="scale(1 1) rotate(0) translate(4 149)">
<title>models_diagram</title>
<polygon fill="none" stroke="none" points="-4,4 -4,-149 471.083,-149 471.083,4 -4,4"/>
<!-- _diagram_info -->
<g id="node1" class="node"><title>_diagram_info</title>
<text text-anchor="start" x="8" y="-130.6" font-family="Times,serif" font-size="13.00">Models diagram</text>
<text text-anchor="start" x="8" y="-117.6" font-family="Times,serif" font-size="13.00">Date: Aug 22 2016 &#45; 21:16</text>
<text text-anchor="start" x="8" y="-104.6" font-family="Times,serif" font-size="13.00">Migration version: 20160819215253</text>
<text text-anchor="start" x="8" y="-91.6" font-family="Times,serif" font-size="13.00">Generated by RailRoady 1.5.1</text>
<text text-anchor="start" x="8" y="-78.6" font-family="Times,serif" font-size="13.00">http://railroady.prestonlee.com</text>
</g>
<!-- Address -->
<g id="node2" class="node"><title>Address</title>
<ellipse fill="none" stroke="black" cx="210.688" cy="-18" rx="39.18" ry="18"/>
<text text-anchor="middle" x="210.688" y="-13.8" font-family="Times,serif" font-size="14.00">Address</text>
</g>
<!-- ApplicationRecord -->
<g id="node3" class="node"><title>ApplicationRecord</title>
<ellipse fill="none" stroke="black" cx="389.688" cy="-108.5" rx="77.2916" ry="18"/>
<text text-anchor="middle" x="389.688" y="-104.3" font-family="Times,serif" font-size="14.00">ApplicationRecord</text>
</g>
<!-- Favorite -->
<g id="node4" class="node"><title>Favorite</title>
<ellipse fill="none" stroke="black" cx="307.688" cy="-18" rx="39.6558" ry="18"/>
<text text-anchor="middle" x="307.688" y="-13.8" font-family="Times,serif" font-size="14.00">Favorite</text>
</g>
<!-- Person -->
<g id="node5" class="node"><title>Person</title>
<ellipse fill="none" stroke="black" cx="259.688" cy="-108.5" rx="34.3614" ry="18"/>
<text text-anchor="middle" x="259.688" y="-104.3" font-family="Times,serif" font-size="14.00">Person</text>
</g>
<!-- Person&#45;&gt;Address -->
<g id="edge2" class="edge"><title>Person&#45;&gt;Address</title>
<path fill="none" stroke="#18d62e" d="M246.542,-83.7573C239.495,-71.0299 230.839,-55.3962 223.798,-42.6785"/>
<ellipse fill="none" stroke="#18d62e" cx="248.534" cy="-87.3544" rx="4.00002" ry="4.00002"/>
<ellipse fill="#18d62e" stroke="#18d62e" cx="221.801" cy="-39.071" rx="4.00002" ry="4.00002"/>
</g>
<!-- Person&#45;&gt;Favorite -->
<g id="edge1" class="edge"><title>Person&#45;&gt;Favorite</title>
<path fill="none" stroke="#98c574" d="M272.565,-83.7573C279.146,-71.6246 287.158,-56.8509 293.868,-44.4799"/>
<ellipse fill="none" stroke="#98c574" cx="270.623" cy="-87.3377" rx="4.00002" ry="4.00002"/>
<polygon fill="#98c574" stroke="#98c574" points="293.932,-44.3619 302.655,-37.717 296.316,-39.9667 298.7,-35.5715 298.7,-35.5715 298.7,-35.5715 296.316,-39.9667 294.744,-33.4261 293.932,-44.3619 293.932,-44.3619"/>
</g>
</g>
</svg>
