<?xml version="1.0" encoding="UTF-8" standalone="no"?>
<!DOCTYPE svg PUBLIC "-//W3C//DTD SVG 1.1//EN"
 "http://www.w3.org/Graphics/SVG/1.1/DTD/svg11.dtd">
<!-- Generated by graphviz version 2.38.0 (20140413.2041)
 -->
<!-- Title: models_diagram Pages: 1 -->
<svg width="654pt" height="386pt"
 viewBox="0.00 0.00 654.08 386.00" xmlns="http://www.w3.org/2000/svg" xmlns:xlink="http://www.w3.org/1999/xlink">
<g id="graph0" class="graph" transform="scale(1 1) rotate(0) translate(4 382)">
<title>models_diagram</title>
<polygon fill="none" stroke="none" points="-4,4 -4,-382 650.083,-382 650.083,4 -4,4"/>
<!-- _diagram_info -->
<g id="node1" class="node"><title>_diagram_info</title>
<text text-anchor="start" x="8" y="-300.6" font-family="Times,serif" font-size="13.00">Models diagram</text>
<text text-anchor="start" x="8" y="-287.6" font-family="Times,serif" font-size="13.00">Date: Aug 22 2016 &#45; 21:16</text>
<text text-anchor="start" x="8" y="-274.6" font-family="Times,serif" font-size="13.00">Migration version: 20160819215253</text>
<text text-anchor="start" x="8" y="-261.6" font-family="Times,serif" font-size="13.00">Generated by RailRoady 1.5.1</text>
<text text-anchor="start" x="8" y="-248.6" font-family="Times,serif" font-size="13.00">http://railroady.prestonlee.com</text>
</g>
<!-- Address -->
<g id="node2" class="node"><title>Address</title>
<path fill="none" stroke="black" d="M104.825,-0.5C104.825,-0.5 328.55,-0.5 328.55,-0.5 334.55,-0.5 340.55,-6.5 340.55,-12.5 340.55,-12.5 340.55,-130.5 340.55,-130.5 340.55,-136.5 334.55,-142.5 328.55,-142.5 328.55,-142.5 104.825,-142.5 104.825,-142.5 98.8254,-142.5 92.8254,-136.5 92.8254,-130.5 92.8254,-130.5 92.8254,-12.5 92.8254,-12.5 92.8254,-6.5 98.8254,-0.5 104.825,-0.5"/>
<text text-anchor="middle" x="216.688" y="-127.3" font-family="Times,serif" font-size="14.00">Address</text>
<polyline fill="none" stroke="black" points="92.8254,-120.5 340.55,-120.5 "/>
<text text-anchor="start" x="100.825" y="-105.3" font-family="Times,serif" font-size="14.00">email_address :character varying</text>
<text text-anchor="start" x="100.825" y="-91.3" font-family="Times,serif" font-size="14.00">city :character varying</text>
<text text-anchor="start" x="100.825" y="-77.3" font-family="Times,serif" font-size="14.00">state :character varying</text>
<text text-anchor="start" x="100.825" y="-63.3" font-family="Times,serif" font-size="14.00">zip :character varying</text>
<text text-anchor="start" x="100.825" y="-49.3" font-family="Times,serif" font-size="14.00">person_id :integer</text>
<text text-anchor="start" x="100.825" y="-35.3" font-family="Times,serif" font-size="14.00">created_at :timestamp without time zone</text>
<text text-anchor="start" x="100.825" y="-21.3" font-family="Times,serif" font-size="14.00">updated_at :timestamp without time zone</text>
<text text-anchor="start" x="100.825" y="-7.3" font-family="Times,serif" font-size="14.00">id :integer</text>
</g>
<!-- ApplicationRecord -->
<g id="node3" class="node"><title>ApplicationRecord</title>
<ellipse fill="none" stroke="black" cx="568.688" cy="-278.5" rx="77.2916" ry="18"/>
<text text-anchor="middle" x="568.688" y="-274.3" font-family="Times,serif" font-size="14.00">ApplicationRecord</text>
</g>
<!-- Favorite -->
<g id="node4" class="node"><title>Favorite</title>
<path fill="none" stroke="black" d="M370.825,-14.5C370.825,-14.5 594.55,-14.5 594.55,-14.5 600.55,-14.5 606.55,-20.5 606.55,-26.5 606.55,-26.5 606.55,-116.5 606.55,-116.5 606.55,-122.5 600.55,-128.5 594.55,-128.5 594.55,-128.5 370.825,-128.5 370.825,-128.5 364.825,-128.5 358.825,-122.5 358.825,-116.5 358.825,-116.5 358.825,-26.5 358.825,-26.5 358.825,-20.5 364.825,-14.5 370.825,-14.5"/>
<text text-anchor="middle" x="482.688" y="-113.3" font-family="Times,serif" font-size="14.00">Favorite</text>
<polyline fill="none" stroke="black" points="358.825,-106.5 606.55,-106.5 "/>
<text text-anchor="start" x="366.825" y="-91.3" font-family="Times,serif" font-size="14.00">id :integer</text>
<text text-anchor="start" x="366.825" y="-77.3" font-family="Times,serif" font-size="14.00">likes :text</text>
<text text-anchor="start" x="366.825" y="-63.3" font-family="Times,serif" font-size="14.00">dislikes :text</text>
<text text-anchor="start" x="366.825" y="-49.3" font-family="Times,serif" font-size="14.00">person_id :integer</text>
<text text-anchor="start" x="366.825" y="-35.3" font-family="Times,serif" font-size="14.00">created_at :timestamp without time zone</text>
<text text-anchor="start" x="366.825" y="-21.3" font-family="Times,serif" font-size="14.00">updated_at :timestamp without time zone</text>
</g>
<!-- Person -->
<g id="node5" class="node"><title>Person</title>
<path fill="none" stroke="black" d="M237.825,-179.5C237.825,-179.5 461.55,-179.5 461.55,-179.5 467.55,-179.5 473.55,-185.5 473.55,-191.5 473.55,-191.5 473.55,-365.5 473.55,-365.5 473.55,-371.5 467.55,-377.5 461.55,-377.5 461.55,-377.5 237.825,-377.5 237.825,-377.5 231.825,-377.5 225.825,-371.5 225.825,-365.5 225.825,-365.5 225.825,-191.5 225.825,-191.5 225.825,-185.5 231.825,-179.5 237.825,-179.5"/>
<text text-anchor="middle" x="349.688" y="-362.3" font-family="Times,serif" font-size="14.00">Person</text>
<polyline fill="none" stroke="black" points="225.825,-355.5 473.55,-355.5 "/>
<text text-anchor="start" x="233.825" y="-340.3" font-family="Times,serif" font-size="14.00">age :integer</text>
<text text-anchor="start" x="233.825" y="-326.3" font-family="Times,serif" font-size="14.00">name :character varying</text>
<text text-anchor="start" x="233.825" y="-312.3" font-family="Times,serif" font-size="14.00">gender :character varying</text>
<text text-anchor="start" x="233.825" y="-298.3" font-family="Times,serif" font-size="14.00">height :character varying</text>
<text text-anchor="start" x="233.825" y="-284.3" font-family="Times,serif" font-size="14.00">activity_level :character varying</text>
<text text-anchor="start" x="233.825" y="-270.3" font-family="Times,serif" font-size="14.00">eye_color :character varying</text>
<text text-anchor="start" x="233.825" y="-256.3" font-family="Times,serif" font-size="14.00">hair_color :character varying</text>
<text text-anchor="start" x="233.825" y="-242.3" font-family="Times,serif" font-size="14.00">ethnicity :character varying</text>
<text text-anchor="start" x="233.825" y="-228.3" font-family="Times,serif" font-size="14.00">interest :text</text>
<text text-anchor="start" x="233.825" y="-214.3" font-family="Times,serif" font-size="14.00">created_at :timestamp without time zone</text>
<text text-anchor="start" x="233.825" y="-200.3" font-family="Times,serif" font-size="14.00">updated_at :timestamp without time zone</text>
<text text-anchor="start" x="233.825" y="-186.3" font-family="Times,serif" font-size="14.00">id :integer</text>
</g>
<!-- Person&#45;&gt;Address -->
<g id="edge2" class="edge"><title>Person&#45;&gt;Address</title>
<path fill="none" stroke="#77a27b" d="M281.412,-172.263C276.433,-164.589 271.468,-156.935 266.627,-149.475"/>
<ellipse fill="none" stroke="#77a27b" cx="283.738" cy="-175.847" rx="4.00002" ry="4.00002"/>
<ellipse fill="#77a27b" stroke="#77a27b" cx="264.398" cy="-146.038" rx="4.00002" ry="4.00002"/>
</g>
<!-- Person&#45;&gt;Favorite -->
<g id="edge1" class="edge"><title>Person&#45;&gt;Favorite</title>
<path fill="none" stroke="#04427c" d="M417.952,-172.28C425.742,-160.274 433.499,-148.318 440.795,-137.071"/>
<ellipse fill="none" stroke="#04427c" cx="415.638" cy="-175.847" rx="4.00002" ry="4.00002"/>
<polygon fill="#04427c" stroke="#04427c" points="440.836,-137.009 450.053,-131.069 443.557,-132.814 446.278,-128.62 446.278,-128.62 446.278,-128.62 443.557,-132.814 442.503,-126.171 440.836,-137.009 440.836,-137.009"/>
</g>
</g>
</svg>
